<svg xmlns="http://www.w3.org/2000/svg" width="21" height="21" viewBox="0 0 21 21">
  <path id="Icon_awesome-music" data-name="Icon awesome-music" d="M21,1.313A1.312,1.312,0,0,0,19.293.061L6.169,3.937A1.312,1.312,0,0,0,5.25,5.188V15.91a5.674,5.674,0,0,0-1.312-.161C1.763,15.749,0,16.925,0,18.374S1.763,21,3.937,21s3.937-1.175,3.937-2.625V8.79l10.5-3.077v7.573a5.674,5.674,0,0,0-1.312-.161c-2.175,0-3.937,1.175-3.937,2.625s1.763,2.625,3.937,2.625S21,17.2,21,15.749V1.313Z" transform="translate(0 0.001)" fill="#4853ec"/>
</svg>
